# xmcd
#
# Track frame offsets: 
#        150
#        32325
#        56715
#        98622
#        116970
#        142992
#        176630
#        200945
#        224777
#        248212
#        265142
#        298140
#
# Disc length: 4269 seconds
#
# Revision: 1
# Processed by: cddbd v1.5.2PL0 Copyright (c) Steve Scherf et al.
# Submitted via: ExactAudioCopy v1.1
#
DISCID=c210ab0c
DTITLE=Luther Vandross - Always and Forever - The Classics-1998
DYEAR=1998
DGENRE=Blues
TTITLE0=A House Is Not A Home - 1981
TTITLE1=Since I Lost My Baby - 1982
TTITLE2=Superstar - Until You Come Back To Me - 1983
TTITLE3=Creepin' - 1985
TTITLE4=Anyone Who Had A Heart - 1986
TTITLE5=I (Who Have Nothing) - 1991
TTITLE6=If This World Were Mine - 1982
TTITLE7=Going Out Of My Head - 1996
TTITLE8=Going In Cirlces - 1994
TTITLE9=Knocks Me Off My Feet - 1996
TTITLE10=Love Won't Let Me Wait - 1988
TTITLE11=Always And Forever - 1994
EXTD=Sony Music-1998
EXTT0=
EXTT1=
EXTT2=
EXTT3=
EXTT4=
EXTT5=
EXTT6=
EXTT7=
EXTT8=
EXTT9=
EXTT10=
EXTT11=
PLAYORDER=
